<?xml version="1.0" standalone="no"?>
<!DOCTYPE svg PUBLIC "-//W3C//DTD SVG 20010904//EN"
 "http://www.w3.org/TR/2001/REC-SVG-20010904/DTD/svg10.dtd">
<svg version="1.0" xmlns="http://www.w3.org/2000/svg"
 width="169.000000pt" height="135.000000pt" viewBox="0 0 169.000000 135.000000"
 preserveAspectRatio="xMidYMid meet">
<metadata>
Created by potrace 1.10, written by Peter Selinger 2001-2011
</metadata>
<g transform="translate(0.000000,135.000000) scale(0.050000,-0.050000)"
fill="#33bd91" stroke="none">
<path d="M490 2450 l-320 -186 0 -396 0 -397 280 -163 280 -164 10 -336 10
-335 270 -157 c149 -87 299 -172 333 -190 l64 -32 282 163 c335 194 246 194
571 2 150 -89 283 -159 296 -155 13 3 171 90 350 193 l325 186 -6 393 -5 393
-280 163 -280 164 -10 336 -10 335 -270 157 c-394 230 -393 230 -446 197 -97
-61 -514 -301 -522 -301 -5 0 -131 72 -280 160 -323 192 -254 195 -642 -30z
m522 -145 c92 -52 168 -101 168 -108 0 -17 -311 -197 -340 -197 -30 0 -340
180 -339 197 0 11 315 201 336 202 4 1 83 -42 175 -94z m1218 -42 l220 -133 6
-195 c7 -235 19 -232 -250 -73 -116 69 -219 117 -236 111 -16 -6 -272 -151
-569 -322 -628 -362 -535 -339 -777 -200 -254 146 -241 128 -246 345 -5 233
-22 228 239 74 l222 -131 566 329 c311 181 574 330 585 329 11 0 119 -60 240
-134z m-60 -625 c196 -116 199 -97 -33 -224 -164 -91 -139 -92 -334 18 -197
112 -198 97 3 212 201 114 158 115 364 -6z m-573 -330 c189 -107 189 -107 78
-163 -47 -24 -125 -67 -175 -96 l-90 -53 -176 104 c-97 57 -174 107 -170 110
21 21 330 189 348 189 13 1 96 -40 185 -91z m1179 -19 c254 -146 241 -128 246
-345 5 -233 22 -228 -239 -74 l-221 131 -574 -332 c-503 -291 -579 -330 -616
-310 -23 13 -127 74 -232 137 l-190 114 -6 195 c-7 236 -17 232 246 75 110
-66 209 -120 220 -119 11 0 268 143 570 318 642 372 554 349 796 210z m-35
-641 c194 -111 194 -97 -12 -214 l-169 -97 -170 97 c-205 116 -204 102 -15
213 191 112 174 112 366 1z"/>
</g>
</svg>
